<svg
    xmlns="http://www.w3.org/2000/svg"
    width="341.333"
    height="341.333"
    fill="#fff"
    viewBox="0 0 256 256"
>
    <path d="M229 9.8c-1.5 1.2-2.4 3.3-2.7 6.4-.7 5.8.1 9.2 2.8 11.7 2 1.9 2 2.1.6 9.3-5.1 24.2-19.1 46.3-39.1 61.5-8.2 6.2-24.1 13.7-34.8 16.4l-8.7 2.2-3.3-3.6c-4-4.2-7.5-5.1-18.7-4.6-9.5.5-12.8 2.4-15.1 8.7l-1.4 4.2H67.8c-23 0-40.8-.4-40.8-.9s-1.6-1.7-3.6-2.6c-5-2.4-10.7-.7-13.4 3.8-2.5 4.1-2.5 7.3 0 11.4 2.7 4.5 8.4 6.2 13.4 3.8 2-.9 3.6-2.1 3.6-2.6s12.5-.9 28.3-.8h28.2l-6.7 3.4c-17.3 8.6-30.8 19.7-42.3 35-9.2 12.3-18.5 34.8-20.1 49.1-.4 3-1.1 5.4-1.5 5.4-.5 0-1.8.9-2.9 2-1.6 1.6-2 3.3-2 8 0 5.1.4 6.5 2.5 8.5 2 2.1 3.4 2.5 8.3 2.5 7.7 0 10.2-1.9 10.9-8.2.7-5.8-.1-9.2-2.8-11.7-2-1.9-2-2.1-.6-9.3 2.4-11.1 7.2-23.6 12.9-32.8 5.8-9.4 17.2-21.9 26.2-28.6 8.3-6.3 24.4-13.9 34.8-16.5l8.7-2.2 3.3 3.6c4 4.2 7.5 5.1 18.7 4.6 9.5-.5 12.8-2.4 15.1-8.7l1.4-4.2h40.8c23 0 40.8.4 40.8.9s1.6 1.7 3.6 2.6c3.1 1.5 4.3 1.5 7.6.6 4.3-1.3 7.8-5.8 7.8-10.1s-3.5-8.8-7.8-10.1c-3.3-.9-4.5-.9-7.6.6-2 .9-3.6 2.1-3.6 2.6s-12.5.9-28.2.9l-28.3-.1 7.5-3.7c16.8-8.4 29.8-19.3 41.8-35.1 8.9-11.8 18.2-34.5 19.8-48.7.4-3 1.1-5.4 1.5-5.4.5 0 1.8-.9 2.9-2 1.6-1.6 2-3.3 2-8 0-5.1-.4-6.5-2.5-8.5-2-2.1-3.4-2.5-8.3-2.5-4.3 0-6.6.5-8.2 1.8zm-94.3 111.4c3.2 3 3.2 10.2.1 13.5-3 3.2-10.2 3.2-13.5.1-3.2-3-3.2-10.2-.1-13.5 3-3.2 10.2-3.2 13.5-.1z" />
</svg>
